<mxfile host="app.diagrams.net" modified="2021-05-25T14:36:43.495Z" agent="5.0 (Macintosh; Intel Mac OS X 10_15_6) AppleWebKit/605.1.15 (KHTML, like Gecko) Version/14.0.3 Safari/605.1.15" etag="UZOzBmPCVNDz82nFgdkh" version="14.6.11" type="github">
  <diagram id="dAjb6rqtW0yNaVWgVVqN" name="第 1 页">
    <mxGraphModel dx="946" dy="800" grid="1" gridSize="10" guides="1" tooltips="1" connect="1" arrows="1" fold="1" page="1" pageScale="1" pageWidth="827" pageHeight="1169" math="0" shadow="0">
      <root>
        <mxCell id="0" />
        <mxCell id="1" parent="0" />
        <mxCell id="9THP7HvVpFN-kvNQ8RUd-11" value="" style="endArrow=none;dashed=1;html=1;dashPattern=1 3;strokeWidth=2;fontSize=16;" edge="1" parent="1">
          <mxGeometry width="50" height="50" relative="1" as="geometry">
            <mxPoint x="140" y="390" as="sourcePoint" />
            <mxPoint x="710" y="390" as="targetPoint" />
          </mxGeometry>
        </mxCell>
        <mxCell id="9THP7HvVpFN-kvNQ8RUd-3" value="" style="edgeStyle=orthogonalEdgeStyle;rounded=0;orthogonalLoop=1;jettySize=auto;html=1;entryX=0.5;entryY=0;entryDx=0;entryDy=0;fontSize=16;" edge="1" parent="1" source="9THP7HvVpFN-kvNQ8RUd-1" target="9THP7HvVpFN-kvNQ8RUd-2">
          <mxGeometry relative="1" as="geometry" />
        </mxCell>
        <mxCell id="9THP7HvVpFN-kvNQ8RUd-1" value="执行写操作命令" style="rounded=0;whiteSpace=wrap;html=1;fillColor=#dae8fc;strokeColor=#6c8ebf;fontSize=16;" vertex="1" parent="1">
          <mxGeometry x="319" y="130" width="190" height="60" as="geometry" />
        </mxCell>
        <mxCell id="9THP7HvVpFN-kvNQ8RUd-10" style="edgeStyle=orthogonalEdgeStyle;rounded=0;orthogonalLoop=1;jettySize=auto;html=1;entryX=0.5;entryY=0;entryDx=0;entryDy=0;fontSize=16;" edge="1" parent="1" source="9THP7HvVpFN-kvNQ8RUd-2" target="9THP7HvVpFN-kvNQ8RUd-5">
          <mxGeometry relative="1" as="geometry" />
        </mxCell>
        <mxCell id="9THP7HvVpFN-kvNQ8RUd-2" value="&lt;span style=&quot;font-size: 16px;&quot;&gt;命令追加到&lt;br style=&quot;font-size: 16px;&quot;&gt;&lt;/span&gt;server.aof_buf&lt;span style=&quot;font-size: 16px;&quot;&gt;&lt;br style=&quot;font-size: 16px;&quot;&gt;缓冲区&lt;/span&gt;" style="rounded=0;whiteSpace=wrap;html=1;fillColor=#fff2cc;strokeColor=#d6b656;labelBackgroundColor=none;fontSize=16;" vertex="1" parent="1">
          <mxGeometry x="319" y="240" width="190" height="70" as="geometry" />
        </mxCell>
        <mxCell id="9THP7HvVpFN-kvNQ8RUd-8" style="edgeStyle=orthogonalEdgeStyle;rounded=0;orthogonalLoop=1;jettySize=auto;html=1;fontSize=16;" edge="1" parent="1" source="9THP7HvVpFN-kvNQ8RUd-4" target="9THP7HvVpFN-kvNQ8RUd-7">
          <mxGeometry relative="1" as="geometry" />
        </mxCell>
        <mxCell id="9THP7HvVpFN-kvNQ8RUd-4" value="&lt;span style=&quot;font-size: 16px;&quot;&gt;内核缓冲区&lt;br style=&quot;font-size: 16px;&quot;&gt;page cache&lt;br style=&quot;font-size: 16px;&quot;&gt;&lt;/span&gt;" style="rounded=0;whiteSpace=wrap;html=1;fillColor=#ffe6cc;strokeColor=#d79b00;labelBackgroundColor=none;fontSize=16;" vertex="1" parent="1">
          <mxGeometry x="319" y="470" width="190" height="70" as="geometry" />
        </mxCell>
        <mxCell id="9THP7HvVpFN-kvNQ8RUd-9" style="edgeStyle=orthogonalEdgeStyle;rounded=0;orthogonalLoop=1;jettySize=auto;html=1;fontSize=16;" edge="1" parent="1" source="9THP7HvVpFN-kvNQ8RUd-5" target="9THP7HvVpFN-kvNQ8RUd-4">
          <mxGeometry relative="1" as="geometry" />
        </mxCell>
        <mxCell id="9THP7HvVpFN-kvNQ8RUd-5" value="I/O 系统调用&lt;br style=&quot;font-size: 16px;&quot;&gt;write()" style="rounded=0;whiteSpace=wrap;html=1;fillColor=#d5e8d4;strokeColor=#82b366;fontSize=16;" vertex="1" parent="1">
          <mxGeometry x="319" y="360" width="190" height="60" as="geometry" />
        </mxCell>
        <mxCell id="9THP7HvVpFN-kvNQ8RUd-6" value="&lt;span style=&quot;font-size: 16px;&quot;&gt;由内核发起写操作&lt;br style=&quot;font-size: 16px;&quot;&gt;&lt;/span&gt;" style="rounded=0;whiteSpace=wrap;html=1;fillColor=#e1d5e7;strokeColor=#9673a6;labelBackgroundColor=none;fontSize=16;" vertex="1" parent="1">
          <mxGeometry x="320" y="584.5" width="190" height="70" as="geometry" />
        </mxCell>
        <mxCell id="9THP7HvVpFN-kvNQ8RUd-7" value="硬盘" style="shape=cylinder3;whiteSpace=wrap;html=1;boundedLbl=1;backgroundOutline=1;size=15;fillColor=#f5f5f5;strokeColor=#666666;fontColor=#333333;fontSize=16;" vertex="1" parent="1">
          <mxGeometry x="320" y="690" width="180" height="90" as="geometry" />
        </mxCell>
        <mxCell id="9THP7HvVpFN-kvNQ8RUd-12" value="用户态" style="text;html=1;align=center;verticalAlign=middle;resizable=0;points=[];autosize=1;strokeColor=none;fontSize=16;" vertex="1" parent="1">
          <mxGeometry x="145" y="360" width="60" height="20" as="geometry" />
        </mxCell>
        <mxCell id="9THP7HvVpFN-kvNQ8RUd-13" value="内核态" style="text;html=1;align=center;verticalAlign=middle;resizable=0;points=[];autosize=1;strokeColor=none;fontSize=16;" vertex="1" parent="1">
          <mxGeometry x="145" y="400" width="60" height="20" as="geometry" />
        </mxCell>
      </root>
    </mxGraphModel>
  </diagram>
</mxfile>
